<mxfile host="app.diagrams.net" modified="2023-08-09T02:03:59.174Z" agent="Mozilla/5.0 (Macintosh; Intel Mac OS X 10_15_7) AppleWebKit/537.36 (KHTML, like Gecko) Chrome/115.0.0.0 Safari/537.36" etag="VVsxwZ36Ihbssl-Lgkfv" version="21.6.6" type="device">
  <diagram id="C5RBs43oDa-KdzZeNtuy" name="Page-1">
    <mxGraphModel dx="545" dy="349" grid="1" gridSize="10" guides="1" tooltips="1" connect="1" arrows="1" fold="1" page="1" pageScale="1" pageWidth="827" pageHeight="1169" math="0" shadow="0">
      <root>
        <mxCell id="WIyWlLk6GJQsqaUBKTNV-0" />
        <mxCell id="WIyWlLk6GJQsqaUBKTNV-1" parent="WIyWlLk6GJQsqaUBKTNV-0" />
        <mxCell id="7jpmsLD-NK7H81HDhPoP-1" value="" style="edgeStyle=orthogonalEdgeStyle;rounded=0;orthogonalLoop=1;jettySize=auto;html=1;" edge="1" parent="WIyWlLk6GJQsqaUBKTNV-1" source="WIyWlLk6GJQsqaUBKTNV-3" target="7jpmsLD-NK7H81HDhPoP-0">
          <mxGeometry relative="1" as="geometry" />
        </mxCell>
        <mxCell id="WIyWlLk6GJQsqaUBKTNV-3" value="BEGIN&lt;span id=&quot;docs-internal-guid-55367588-7fff-ca0d-b6b9-5bfb5f76af31&quot;&gt;&lt;/span&gt;" style="rounded=1;whiteSpace=wrap;html=1;fontSize=12;glass=0;strokeWidth=1;shadow=0;" parent="WIyWlLk6GJQsqaUBKTNV-1" vertex="1">
          <mxGeometry x="160" y="80" width="120" height="40" as="geometry" />
        </mxCell>
        <mxCell id="7jpmsLD-NK7H81HDhPoP-3" value="" style="edgeStyle=orthogonalEdgeStyle;rounded=0;orthogonalLoop=1;jettySize=auto;html=1;" edge="1" parent="WIyWlLk6GJQsqaUBKTNV-1" source="7jpmsLD-NK7H81HDhPoP-0" target="7jpmsLD-NK7H81HDhPoP-2">
          <mxGeometry relative="1" as="geometry" />
        </mxCell>
        <mxCell id="7jpmsLD-NK7H81HDhPoP-0" value="totalSpendings = 0" style="rounded=0;whiteSpace=wrap;html=1;" vertex="1" parent="WIyWlLk6GJQsqaUBKTNV-1">
          <mxGeometry x="160" y="160" width="120" height="60" as="geometry" />
        </mxCell>
        <mxCell id="7jpmsLD-NK7H81HDhPoP-5" value="" style="edgeStyle=orthogonalEdgeStyle;rounded=0;orthogonalLoop=1;jettySize=auto;html=1;" edge="1" parent="WIyWlLk6GJQsqaUBKTNV-1" source="7jpmsLD-NK7H81HDhPoP-2" target="7jpmsLD-NK7H81HDhPoP-4">
          <mxGeometry relative="1" as="geometry">
            <Array as="points">
              <mxPoint x="400" y="325" />
            </Array>
          </mxGeometry>
        </mxCell>
        <mxCell id="7jpmsLD-NK7H81HDhPoP-6" value="no" style="edgeLabel;html=1;align=center;verticalAlign=middle;resizable=0;points=[];" vertex="1" connectable="0" parent="7jpmsLD-NK7H81HDhPoP-5">
          <mxGeometry x="-0.0882" relative="1" as="geometry">
            <mxPoint x="-12" y="-15" as="offset" />
          </mxGeometry>
        </mxCell>
        <mxCell id="7jpmsLD-NK7H81HDhPoP-2" value="end of allSpendings&lt;br&gt;&amp;nbsp;file" style="rhombus;whiteSpace=wrap;html=1;rounded=0;" vertex="1" parent="WIyWlLk6GJQsqaUBKTNV-1">
          <mxGeometry x="175" y="280" width="90" height="90" as="geometry" />
        </mxCell>
        <mxCell id="7jpmsLD-NK7H81HDhPoP-8" value="" style="edgeStyle=orthogonalEdgeStyle;rounded=0;orthogonalLoop=1;jettySize=auto;html=1;" edge="1" parent="WIyWlLk6GJQsqaUBKTNV-1" source="7jpmsLD-NK7H81HDhPoP-4" target="7jpmsLD-NK7H81HDhPoP-7">
          <mxGeometry relative="1" as="geometry" />
        </mxCell>
        <mxCell id="7jpmsLD-NK7H81HDhPoP-4" value="&lt;p style=&quot;line-height: 1.56; margin: 10pt -0.75pt 0pt 71.25pt; text-indent: 0.75pt; font-size: 11px;&quot; dir=&quot;ltr&quot;&gt;&lt;/p&gt;&lt;div style=&quot;font-size: 13px;&quot;&gt;&lt;/div&gt;&lt;span style=&quot;font-family: Consolas, sans-serif; background-color: transparent; font-variant-numeric: normal; font-variant-east-asian: normal; font-variant-alternates: normal; vertical-align: baseline; font-size: 11px;&quot;&gt;&lt;font style=&quot;font-size: 11px;&quot;&gt;READ amount, date from allSpendings&lt;/font&gt;&lt;/span&gt;&lt;p style=&quot;font-size: 11px;&quot;&gt;&lt;/p&gt;&lt;font style=&quot;font-size: 11px;&quot;&gt;&lt;span id=&quot;docs-internal-guid-1171a91e-7fff-6bf5-6e23-0d3bd96f2a9c&quot;&gt;&lt;/span&gt;&lt;/font&gt;" style="shape=parallelogram;perimeter=parallelogramPerimeter;whiteSpace=wrap;html=1;fixedSize=1;" vertex="1" parent="WIyWlLk6GJQsqaUBKTNV-1">
          <mxGeometry x="330" y="360" width="140" height="60" as="geometry" />
        </mxCell>
        <mxCell id="7jpmsLD-NK7H81HDhPoP-10" value="" style="edgeStyle=orthogonalEdgeStyle;rounded=0;orthogonalLoop=1;jettySize=auto;html=1;entryX=0.501;entryY=-0.067;entryDx=0;entryDy=0;entryPerimeter=0;" edge="1" parent="WIyWlLk6GJQsqaUBKTNV-1" source="7jpmsLD-NK7H81HDhPoP-7" target="7jpmsLD-NK7H81HDhPoP-17">
          <mxGeometry relative="1" as="geometry">
            <mxPoint x="400" y="670" as="targetPoint" />
          </mxGeometry>
        </mxCell>
        <mxCell id="7jpmsLD-NK7H81HDhPoP-23" value="yes" style="edgeLabel;html=1;align=center;verticalAlign=middle;resizable=0;points=[];" vertex="1" connectable="0" parent="7jpmsLD-NK7H81HDhPoP-10">
          <mxGeometry x="-0.1609" relative="1" as="geometry">
            <mxPoint x="10" y="2" as="offset" />
          </mxGeometry>
        </mxCell>
        <mxCell id="7jpmsLD-NK7H81HDhPoP-14" value="" style="edgeStyle=orthogonalEdgeStyle;rounded=0;orthogonalLoop=1;jettySize=auto;html=1;" edge="1" parent="WIyWlLk6GJQsqaUBKTNV-1" source="7jpmsLD-NK7H81HDhPoP-7">
          <mxGeometry relative="1" as="geometry">
            <mxPoint x="560" y="535" as="targetPoint" />
          </mxGeometry>
        </mxCell>
        <mxCell id="7jpmsLD-NK7H81HDhPoP-22" value="no" style="edgeLabel;html=1;align=center;verticalAlign=middle;resizable=0;points=[];" vertex="1" connectable="0" parent="7jpmsLD-NK7H81HDhPoP-14">
          <mxGeometry x="-0.1683" y="1" relative="1" as="geometry">
            <mxPoint y="-14" as="offset" />
          </mxGeometry>
        </mxCell>
        <mxCell id="7jpmsLD-NK7H81HDhPoP-7" value="getMonth(date) = currentMonth&lt;br&gt;AND&lt;br&gt;getYear(date) = currentYear" style="rhombus;whiteSpace=wrap;html=1;" vertex="1" parent="WIyWlLk6GJQsqaUBKTNV-1">
          <mxGeometry x="335" y="470" width="130" height="130" as="geometry" />
        </mxCell>
        <mxCell id="7jpmsLD-NK7H81HDhPoP-12" value="" style="endArrow=classic;html=1;rounded=0;" edge="1" parent="WIyWlLk6GJQsqaUBKTNV-1" source="7jpmsLD-NK7H81HDhPoP-17">
          <mxGeometry width="50" height="50" relative="1" as="geometry">
            <mxPoint x="450" y="700" as="sourcePoint" />
            <mxPoint x="220" y="240" as="targetPoint" />
            <Array as="points">
              <mxPoint x="560" y="710" />
              <mxPoint x="560" y="240" />
            </Array>
          </mxGeometry>
        </mxCell>
        <mxCell id="7jpmsLD-NK7H81HDhPoP-15" value="END" style="rounded=1;whiteSpace=wrap;html=1;" vertex="1" parent="WIyWlLk6GJQsqaUBKTNV-1">
          <mxGeometry x="160" y="780" width="120" height="60" as="geometry" />
        </mxCell>
        <mxCell id="7jpmsLD-NK7H81HDhPoP-20" value="" style="edgeStyle=orthogonalEdgeStyle;rounded=0;orthogonalLoop=1;jettySize=auto;html=1;" edge="1" parent="WIyWlLk6GJQsqaUBKTNV-1" source="7jpmsLD-NK7H81HDhPoP-16" target="7jpmsLD-NK7H81HDhPoP-15">
          <mxGeometry relative="1" as="geometry" />
        </mxCell>
        <mxCell id="7jpmsLD-NK7H81HDhPoP-16" value="DISPLAY totalSpendings" style="shape=parallelogram;perimeter=parallelogramPerimeter;whiteSpace=wrap;html=1;fixedSize=1;" vertex="1" parent="WIyWlLk6GJQsqaUBKTNV-1">
          <mxGeometry x="160" y="680" width="120" height="60" as="geometry" />
        </mxCell>
        <mxCell id="7jpmsLD-NK7H81HDhPoP-17" value="&lt;span style=&quot;border-color: var(--border-color); color: rgb(0, 0, 0); font-size: 12px; font-style: normal; font-variant: normal; font-weight: 400; letter-spacing: normal; orphans: 2; text-align: center; text-indent: 0px; text-transform: none; widows: 2; word-spacing: 0px; -webkit-text-stroke-width: 0px; background-color: transparent; text-decoration-thickness: initial; text-decoration-style: initial; text-decoration-color: initial; font-family: Consolas, sans-serif; vertical-align: baseline;&quot;&gt;&lt;font style=&quot;border-color: var(--border-color); font-size: 12px;&quot;&gt;&lt;br&gt;totalSpendings = totalSpendings + amount&lt;/font&gt;&lt;/span&gt;&lt;p style=&quot;border-color: var(--border-color); color: rgb(0, 0, 0); font-family: Helvetica; font-size: 12px; font-style: normal; font-variant-ligatures: normal; font-variant-caps: normal; font-weight: 400; letter-spacing: normal; orphans: 2; text-align: center; text-indent: 0px; text-transform: none; widows: 2; word-spacing: 0px; -webkit-text-stroke-width: 0px; background-color: rgb(251, 251, 251); text-decoration-thickness: initial; text-decoration-style: initial; text-decoration-color: initial;&quot;&gt;&lt;/p&gt;&lt;font style=&quot;border-color: var(--border-color); color: rgb(0, 0, 0); font-family: Helvetica; font-size: 12px; font-style: normal; font-variant-ligatures: normal; font-variant-caps: normal; font-weight: 400; letter-spacing: normal; orphans: 2; text-align: center; text-indent: 0px; text-transform: none; widows: 2; word-spacing: 0px; -webkit-text-stroke-width: 0px; background-color: rgb(251, 251, 251); text-decoration-thickness: initial; text-decoration-style: initial; text-decoration-color: initial;&quot;&gt;&lt;br class=&quot;Apple-interchange-newline&quot;&gt;&lt;/font&gt;" style="rounded=0;whiteSpace=wrap;html=1;" vertex="1" parent="WIyWlLk6GJQsqaUBKTNV-1">
          <mxGeometry x="340" y="680" width="120" height="60" as="geometry" />
        </mxCell>
        <mxCell id="7jpmsLD-NK7H81HDhPoP-19" value="" style="endArrow=classic;html=1;rounded=0;exitX=0.5;exitY=1;exitDx=0;exitDy=0;entryX=0.5;entryY=0;entryDx=0;entryDy=0;" edge="1" parent="WIyWlLk6GJQsqaUBKTNV-1" source="7jpmsLD-NK7H81HDhPoP-2" target="7jpmsLD-NK7H81HDhPoP-16">
          <mxGeometry width="50" height="50" relative="1" as="geometry">
            <mxPoint x="221.22" y="340" as="sourcePoint" />
            <mxPoint x="218.77999999999994" y="661.02" as="targetPoint" />
          </mxGeometry>
        </mxCell>
        <mxCell id="7jpmsLD-NK7H81HDhPoP-21" value="yes" style="edgeLabel;html=1;align=center;verticalAlign=middle;resizable=0;points=[];" vertex="1" connectable="0" parent="7jpmsLD-NK7H81HDhPoP-19">
          <mxGeometry x="0.0092" y="2" relative="1" as="geometry">
            <mxPoint x="8" as="offset" />
          </mxGeometry>
        </mxCell>
      </root>
    </mxGraphModel>
  </diagram>
</mxfile>
